<svg width="273.59873046875px" height="122px" xmlns="http://www.w3.org/2000/svg" viewBox="113.20063476562501 14 273.59873046875 122" style="background: rgba(0, 0, 0, 0);" preserveAspectRatio="xMidYMid"><defs><filter id="editing-offset"><feFlood flood-color="#f00" flood-opacity="0.5" result="c1"></feFlood><feFlood flood-color="#0f0" flood-opacity="0.5" result="c2"></feFlood><feFlood flood-color="#00f" flood-opacity="0.5" result="c3"></feFlood><feComposite operator="in" in="c1" in2="SourceAlpha" result="text-c1"></feComposite><feComposite operator="in" in="c2" in2="SourceAlpha" result="text-c2"></feComposite><feComposite operator="in" in="c3" in2="SourceAlpha" result="text-c3"></feComposite><feOffset in="text-c1" dx="-10" dy="0" result="text1"></feOffset><feOffset in="text-c2" dx="10" dy="0" result="text2"></feOffset><feOffset in="text-c3" dx="0" dy="0" result="text3"></feOffset><feMerge><feMergeNode in="text1"></feMergeNode><feMergeNode in="text2"></feMergeNode><feMergeNode in="text3"></feMergeNode></feMerge></filter></defs><g filter="url(#editing-offset)"><g transform="translate(156.69873744249344, 97.39999961853027)"><path d="M7.68 0L0.64 0L8.32-42.24L22.08-42.24L32.06-13.18L37.38-42.24L44.48-42.18L36.67 0L22.02 0L12.80-27.97L7.68 0ZM73.41-9.86L73.41-9.86L73.41-9.86Q74.62-8.32 74.62-5.82L74.62-5.82L74.62-5.82Q74.62-2.37 72.06-0.54L72.06-0.54L72.06-0.54Q69.50 1.28 65.47 1.28L65.47 1.28L65.47 1.28Q63.17 1.28 59.65 0.77L59.65 0.77L59.65 0.77Q52.74-0.32 50.62-0.32L50.62-0.32L50.62-0.32Q48.51-0.32 47.68-0.22L47.68-0.22L47.68-0.22Q46.85-0.13 45.50 0L45.50 0L53.38-42.24L80.96-42.24L80.96-42.24Q80.96-38.34 79.07-36.29L79.07-36.29L79.07-36.29Q77.18-34.24 73.47-34.24L73.47-34.24L73.47-34.24Q69.76-34.24 65.98-35.97L65.98-35.97L64-24.77L75.39-24.77L75.39-24.77Q75.39-21.38 73.73-19.49L73.73-19.49L73.73-19.49Q72.06-17.60 69.28-17.60L69.28-17.60L69.28-17.60Q66.50-17.60 64.77-18.24L64.77-18.24L64.77-18.24Q63.04-18.88 62.85-19.07L62.85-19.07L60.54-6.98L60.54-6.98Q62.08-6.78 64.96-6.78L64.96-6.78L64.96-6.78Q69.89-6.78 73.41-9.86ZM82.11-39.68L82.11-39.68L82.11-39.68Q83.97-43.52 89.12-43.52L89.12-43.52L89.12-43.52Q94.27-43.52 96.67-40.54L96.67-40.54L96.67-40.54Q99.07-37.57 99.07-30.72L99.07-30.72L99.07-7.87L114.62-42.18L122.24-42.18L102.34 0L87.36 0L85.44-30.72L85.44-30.72Q85.25-34.11 84.32-36.42L84.32-36.42L84.32-36.42Q83.39-38.72 82.11-39.68ZM132.93 0L118.98 0L127.10-42.24L141.18-42.24L132.93 0ZM149.18 0L142.14 0L149.82-42.24L163.58-42.24L173.57-13.18L178.88-42.24L185.98-42.18L178.18 0L163.52 0L154.30-27.97L149.18 0Z"></path></g></g><style>text {
  font-size: 64px;
  font-family: Arial Black;
  dominant-baseline: central;
  text-anchor: middle;
}</style></svg>